# WaveFront *.obj file (generated by Autodesk ATF)

mtllib 82031fa5-b9d8-4506-b94d-145ded21015d.mtl

g Body1

v 0.050000 0.010000 0.020000
v -0.050000 0.010000 0.020000
v -0.050000 0.010000 0.000000
v 0.050000 0.010000 0.000000
v 0.050000 0.100000 0.020000
v 0.050000 0.100000 -0.000000
v -0.050000 0.100000 0.020000
v -0.050000 0.100000 -0.000000
vt 0.000000 -0.000000 0.000000
vt 10.000000 0.000000 0.000000
vt -0.000000 2.000000 0.000000
vt 10.000000 2.000000 0.000000
vt 0.000000 0.000000 0.000000
vt 9.000000 -0.000000 0.000000
vt -0.000000 2.000000 0.000000
vt 9.000000 2.000000 0.000000
vt 0.000000 0.000000 0.000000
vt 10.000000 0.000000 0.000000
vt 0.000000 2.000000 0.000000
vt 10.000000 2.000000 0.000000
vt 0.000000 -0.000000 0.000000
vt 9.000000 0.000000 0.000000
vt -0.000000 2.000000 0.000000
vt 9.000000 2.000000 0.000000
vt -4.500000 -5.000000 0.000000
vt 4.500000 -5.000000 0.000000
vt -4.500000 5.000000 0.000000
vt 4.500000 5.000000 0.000000
vt 5.000000 4.500000 0.000000
vt -5.000000 4.500000 0.000000
vt 5.000000 -4.500000 0.000000
vt -5.000000 -4.500000 0.000000
vn 0.000000 -100.000000 0.000000
vn 0.000000 -100.000000 0.000000
vn 0.000000 -100.000000 0.000000
vn 0.000000 -100.000000 0.000000
vn 100.000000 0.000000 0.000000
vn 100.000000 0.000000 0.000000
vn 100.000000 0.000000 0.000000
vn 100.000000 0.000000 0.000000
vn 0.000000 100.000000 -0.000000
vn 0.000000 100.000000 -0.000000
vn 0.000000 100.000000 -0.000000
vn 0.000000 100.000000 -0.000000
vn -100.000000 0.000000 0.000000
vn -100.000000 0.000000 0.000000
vn -100.000000 0.000000 0.000000
vn -100.000000 0.000000 0.000000
vn 0.000000 -0.000000 -100.000000
vn 0.000000 -0.000000 -100.000000
vn 0.000000 -0.000000 -100.000000
vn 0.000000 -0.000000 -100.000000
vn 0.000000 0.000000 100.000000
vn 0.000000 0.000000 100.000000
vn 0.000000 0.000000 100.000000
vn 0.000000 0.000000 100.000000
usemtl Steel_-_Satin
f 1/1/1 2/2/2 4/3/3
f 4/3/3 2/2/2 3/4/4
f 5/5/5 1/6/6 6/7/7
f 6/7/7 1/6/6 4/8/8
f 7/9/9 5/10/10 8/11/11
f 8/11/11 5/10/10 6/12/12
f 2/13/13 7/14/14 3/15/15
f 3/15/15 7/14/14 8/16/16
f 3/17/17 8/18/18 4/19/19
f 4/19/19 8/18/18 6/20/20
f 2/21/21 1/22/22 7/23/23
f 7/23/23 1/22/22 5/24/24
g Body2

v 0.050000 -0.100000 0.020000
v -0.050000 -0.100000 0.020000
v -0.050000 -0.100000 0.000000
v 0.050000 -0.100000 0.000000
v 0.050000 -0.010000 0.020000
v 0.050000 -0.010000 0.000000
v -0.050000 -0.010000 0.020000
v -0.050000 -0.010000 0.000000
vt 0.000000 -0.000000 0.000000
vt 10.000000 0.000000 0.000000
vt 0.000000 2.000000 0.000000
vt 10.000000 2.000000 0.000000
vt 0.000000 0.000000 0.000000
vt 9.000000 -0.000000 0.000000
vt 0.000000 2.000000 0.000000
vt 9.000000 2.000000 0.000000
vt 0.000000 0.000000 0.000000
vt 10.000000 0.000000 0.000000
vt 0.000000 2.000000 0.000000
vt 10.000000 2.000000 0.000000
vt 0.000000 -0.000000 0.000000
vt 9.000000 0.000000 0.000000
vt 0.000000 2.000000 0.000000
vt 9.000000 2.000000 0.000000
vt -4.500000 -5.000000 0.000000
vt 4.500000 -5.000000 0.000000
vt -4.500000 5.000000 0.000000
vt 4.500000 5.000000 0.000000
vt 5.000000 4.500000 0.000000
vt -5.000000 4.500000 0.000000
vt 5.000000 -4.500000 0.000000
vt -5.000000 -4.500000 0.000000
vn 0.000000 -100.000000 0.000000
vn 0.000000 -100.000000 0.000000
vn 0.000000 -100.000000 0.000000
vn 0.000000 -100.000000 0.000000
vn 100.000000 0.000000 0.000000
vn 100.000000 0.000000 0.000000
vn 100.000000 0.000000 0.000000
vn 100.000000 0.000000 0.000000
vn 0.000000 100.000000 -0.000000
vn 0.000000 100.000000 -0.000000
vn 0.000000 100.000000 -0.000000
vn 0.000000 100.000000 -0.000000
vn -100.000000 0.000000 0.000000
vn -100.000000 0.000000 0.000000
vn -100.000000 0.000000 0.000000
vn -100.000000 0.000000 0.000000
vn 0.000000 -0.000000 -100.000000
vn 0.000000 -0.000000 -100.000000
vn 0.000000 -0.000000 -100.000000
vn 0.000000 -0.000000 -100.000000
vn 0.000000 0.000000 100.000000
vn 0.000000 0.000000 100.000000
vn 0.000000 0.000000 100.000000
vn 0.000000 0.000000 100.000000
f 9/25/25 10/26/26 12/27/27
f 12/27/27 10/26/26 11/28/28
f 13/29/29 9/30/30 14/31/31
f 14/31/31 9/30/30 12/32/32
f 15/33/33 13/34/34 16/35/35
f 16/35/35 13/34/34 14/36/36
f 10/37/37 15/38/38 11/39/39
f 11/39/39 15/38/38 16/40/40
f 11/41/41 16/42/42 12/43/43
f 12/43/43 16/42/42 14/44/44
f 10/45/45 9/46/46 15/47/47
f 15/47/47 9/46/46 13/48/48
g Body3

v 0.070000 0.120000 -0.000000
v 0.070000 -0.120000 0.000000
v 0.070000 -0.120000 -0.030000
v 0.070000 0.120000 -0.030000
v -0.070000 0.120000 -0.000000
v -0.070000 0.120000 -0.030000
v -0.070000 -0.120000 0.000000
v -0.070000 -0.120000 -0.030000
vt 0.000000 0.000000 0.000000
vt 24.000000 -0.000000 0.000000
vt 0.000000 3.000000 0.000000
vt 24.000000 3.000000 0.000000
vt 0.000000 0.000000 0.000000
vt 14.000000 0.000000 0.000000
vt 0.000000 3.000000 0.000000
vt 14.000000 3.000000 0.000000
vt 0.000000 -0.000000 0.000000
vt 24.000000 0.000000 0.000000
vt -0.000000 3.000000 0.000000
vt 24.000000 3.000000 0.000000
vt 0.000000 -0.000000 0.000000
vt 14.000000 0.000000 0.000000
vt -0.000000 3.000000 0.000000
vt 14.000000 3.000000 0.000000
vt -12.000000 -7.000000 0.000000
vt 12.000000 -7.000000 0.000000
vt -12.000000 7.000000 0.000000
vt 12.000000 7.000000 0.000000
vt -7.000000 -12.000000 0.000000
vt 7.000000 -12.000000 0.000000
vt -7.000000 12.000000 0.000000
vt 7.000000 12.000000 0.000000
vn 100.000000 0.000000 0.000000
vn 100.000000 0.000000 0.000000
vn 100.000000 0.000000 0.000000
vn 100.000000 0.000000 0.000000
vn 0.000000 100.000000 -0.000000
vn 0.000000 100.000000 -0.000000
vn 0.000000 100.000000 -0.000000
vn 0.000000 100.000000 -0.000000
vn -100.000000 0.000000 0.000000
vn -100.000000 0.000000 0.000000
vn -100.000000 0.000000 0.000000
vn -100.000000 0.000000 0.000000
vn 0.000000 -100.000000 0.000000
vn 0.000000 -100.000000 0.000000
vn 0.000000 -100.000000 0.000000
vn 0.000000 -100.000000 0.000000
vn 0.000000 -0.000000 -100.000000
vn 0.000000 -0.000000 -100.000000
vn 0.000000 -0.000000 -100.000000
vn 0.000000 -0.000000 -100.000000
vn 0.000000 0.000000 100.000000
vn 0.000000 0.000000 100.000000
vn 0.000000 0.000000 100.000000
vn 0.000000 0.000000 100.000000
f 17/49/49 18/50/50 20/51/51
f 20/51/51 18/50/50 19/52/52
f 21/53/53 17/54/54 22/55/55
f 22/55/55 17/54/54 20/56/56
f 23/57/57 21/58/58 24/59/59
f 24/59/59 21/58/58 22/60/60
f 18/61/61 23/62/62 19/63/63
f 19/63/63 23/62/62 24/64/64
f 24/65/65 22/66/66 19/67/67
f 19/67/67 22/66/66 20/68/68
f 23/69/69 18/70/70 21/71/71
f 21/71/71 18/70/70 17/72/72
# 24 vertices
# 72 texture params
# 72 normals
# 36 facets

# 3 groups
